<?xml version="1.0" standalone="no"?>
<!DOCTYPE svg PUBLIC "-//W3C//DTD SVG 20010904//EN"
 "http://www.w3.org/TR/2001/REC-SVG-20010904/DTD/svg10.dtd">
<svg version="1.0" xmlns="http://www.w3.org/2000/svg"
 width="288.000000pt" height="288.000000pt" viewBox="0 0 288.000000 288.000000"
 preserveAspectRatio="xMidYMid meet">

<g transform="translate(0.000000,288.000000) scale(0.100000,-0.100000)"
fill="#000000" stroke="none">
<path d="M656 2845 c50 -44 62 -45 28 0 -14 19 -35 35 -46 35 -17 0 -13 -6 18
-35z"/>
<path d="M770 2844 c0 -9 40 -23 44 -15 3 5 -5 11 -19 13 -14 3 -25 4 -25 2z"/>
<path d="M829 2819 c-11 -16 -17 -29 -13 -29 3 0 0 -7 -7 -16 -16 -20 -21 -55
-10 -72 6 -10 13 -11 34 -1 15 7 24 15 21 20 -2 4 4 7 14 6 28 -2 83 24 75 36
-3 6 -1 7 5 3 6 -4 24 -1 38 7 l27 14 -24 16 c-13 8 -50 22 -81 30 l-58 15
-21 -29z"/>
<path d="M715 2790 c-17 -19 -17 -21 0 -40 24 -27 39 -25 54 7 11 24 11 25 -5
12 -16 -13 -17 -12 -11 5 6 15 5 17 -6 8 -18 -15 -30 -3 -16 15 18 21 4 15
-16 -7z"/>
<path d="M194 2768 c-4 -7 19 -35 60 -72 42 -39 66 -69 66 -82 0 -11 9 -29 21
-40 16 -15 24 -16 39 -6 26 16 41 15 34 -2 -9 -24 15 -56 41 -56 32 0 53 -23
82 -90 27 -60 87 -130 113 -130 26 0 135 -111 163 -167 14 -27 37 -64 51 -81
32 -37 32 -55 1 -120 -30 -63 -97 -253 -91 -260 8 -8 67 10 71 21 1 7 8 28 14
47 8 27 10 29 7 8 -2 -16 -2 -28 -1 -28 1 0 23 9 47 20 51 22 84 52 49 43 -34
-9 -26 33 13 70 55 53 80 95 66 112 -9 11 -17 12 -34 4 -17 -10 -19 -9 -8 2 6
7 12 22 12 34 0 24 45 83 56 72 4 -4 -3 -21 -15 -38 -15 -20 -20 -34 -13 -41
6 -6 12 -6 16 1 11 16 26 13 26 -5 0 -14 3 -14 15 -4 9 7 13 21 10 30 -9 30
21 30 49 1 22 -23 25 -32 17 -52 -5 -14 -16 -31 -25 -38 -10 -9 -14 -22 -10
-38 9 -32 -13 -73 -35 -66 -9 4 -4 -3 10 -15 15 -12 43 -22 67 -23 59 -4 41
-19 -23 -19 -39 0 -54 -4 -59 -16 -3 -9 -4 -20 -1 -24 8 -14 -41 -4 -64 12
-20 14 -27 12 -99 -25 -42 -22 -97 -45 -121 -51 -36 -10 -47 -18 -55 -42 -6
-17 -25 -48 -41 -68 -28 -34 -36 -38 -100 -46 -39 -5 -78 -12 -88 -16 -20 -7
-22 -21 -4 -27 6 -2 1 -2 -13 -1 -14 2 -72 6 -130 9 -58 3 -143 10 -190 15
-47 5 -109 10 -138 10 l-53 0 2 -120 1 -120 36 -9 c21 -5 50 -12 65 -15 22 -5
27 -11 22 -24 -25 -58 -36 -131 -38 -254 -1 -75 1 -134 6 -131 14 9 7 -7 -15
-33 -13 -14 -23 -31 -23 -37 0 -14 -33 -77 -40 -77 -2 0 -1 7 2 17 4 11 3 14
-5 9 -9 -5 -12 -99 -12 -352 l0 -344 30 0 c16 0 48 7 71 16 43 18 45 24 24 89
l-7 20 13 -20 c6 -11 13 -22 15 -24 2 -2 13 8 25 23 11 14 30 31 42 38 12 6 5
-5 -16 -24 -20 -19 -37 -44 -36 -54 0 -11 3 -14 6 -6 2 6 13 12 24 12 10 0 18
5 17 12 -2 6 6 14 17 16 69 14 248 128 258 163 2 9 30 33 62 54 l58 37 86 -7
c47 -4 129 -15 181 -25 52 -10 154 -28 227 -39 119 -19 135 -19 180 -6 26 8
77 15 113 15 125 0 164 47 153 182 -5 56 -9 68 -22 64 -9 -3 -36 -8 -61 -12
-25 -3 -85 -20 -134 -36 -48 -16 -90 -27 -93 -24 -2 2 62 26 143 52 80 27 149
55 152 62 2 8 -2 28 -11 45 -19 39 -154 187 -171 187 -7 0 -81 -34 -165 -75
-83 -41 -153 -75 -155 -75 -1 0 -40 76 -86 169 -46 94 -87 168 -92 165 -4 -3
-5 2 -2 10 3 8 -2 28 -10 45 -9 16 -16 34 -16 39 0 9 360 192 378 192 5 0 15
-13 22 -30 7 -16 29 -62 50 -102 30 -56 40 -69 46 -55 4 11 -10 53 -37 112
-23 52 -41 97 -38 99 2 2 87 45 189 95 121 59 188 87 196 81 7 -7 15 -2 23 14
7 13 25 29 39 36 26 11 26 12 8 26 -11 7 -18 16 -15 18 2 2 33 11 69 19 84 20
120 34 120 47 0 5 -22 22 -49 38 -30 16 -52 36 -56 50 -4 17 -13 22 -36 22
-19 0 -28 4 -24 11 4 5 -1 20 -12 31 -18 21 -18 21 5 9 13 -7 36 -10 52 -6 40
9 50 26 11 19 -20 -4 -39 -1 -55 10 -29 18 -71 72 -80 101 -5 18 -2 20 43 17
46 -4 50 -2 81 37 26 32 36 38 47 30 7 -6 13 -18 13 -25 0 -20 50 25 61 54 5
13 11 41 14 64 5 37 4 39 -12 27 -9 -8 -14 -9 -11 -4 3 6 3 27 -1 47 -6 38 -6
38 -33 24 -16 -8 -28 -10 -28 -5 0 5 7 12 15 15 8 4 12 10 9 15 -3 5 -1 9 4 9
12 0 32 69 32 110 0 47 -19 104 -46 136 -16 19 -22 23 -17 10 4 -13 3 -17 -5
-12 -7 4 -5 -8 4 -31 15 -34 15 -36 0 -24 -10 9 -16 9 -16 3 0 -7 -7 -9 -17
-5 -13 5 -15 3 -9 -13 6 -15 5 -17 -5 -6 -18 17 -29 15 -22 -5 6 -14 1 -13
-22 5 -25 20 -30 21 -35 8 -3 -11 -9 -13 -20 -6 -23 15 -32 12 -21 -8 9 -16 6
-18 -19 -17 -19 1 -27 -2 -23 -11 11 -28 -28 -5 -52 32 -15 21 -34 45 -43 52
-14 10 -11 11 18 5 l35 -6 -18 27 c-18 27 -18 27 3 16 12 -6 29 -9 38 -5 15 5
13 9 -8 21 l-25 15 25 -6 c24 -6 24 -6 -5 19 -16 14 -39 26 -50 26 -11 1 -14
4 -7 7 22 9 2 23 -33 23 -36 0 -53 -14 -34 -26 8 -4 9 -3 5 4 -5 8 -1 10 9 5
12 -4 13 -8 5 -13 -9 -6 -7 -11 6 -19 11 -6 14 -11 7 -11 -17 0 -74 50 -67 61
8 14 -6 10 -22 -6 -9 -8 -27 -18 -42 -22 -15 -3 -43 -17 -62 -30 -36 -24 -58
-13 -24 11 17 13 16 14 -5 25 -19 11 -25 9 -42 -10 -20 -23 -26 -44 -9 -34 6
3 7 -1 4 -9 -3 -9 -10 -14 -14 -11 -4 3 -11 -2 -14 -11 -8 -20 -7 -26 3 -42 7
-11 17 -10 52 8 24 13 47 28 51 34 8 12 8 12 12 -23 2 -14 8 -27 14 -29 14 -4
16 -48 3 -56 -15 -9 -20 -60 -8 -75 9 -12 9 -13 0 -8 -9 6 -8 -5 2 -40 18 -57
17 -53 5 -53 -5 0 -10 6 -10 13 0 19 -28 73 -45 87 -7 6 -11 18 -8 26 4 10 0
13 -13 8 -15 -5 -16 -4 -5 4 12 9 12 13 2 26 -8 9 -22 16 -31 16 -10 0 -20 5
-22 12 -6 16 -105 22 -158 8 -25 -6 -55 -14 -68 -17 -19 -4 -34 5 -72 42 -27
27 -47 52 -45 56 3 4 -2 12 -10 19 -8 7 -15 18 -15 24 0 17 -43 56 -61 56 -22
0 -81 23 -111 43 -37 25 -127 48 -163 41 -19 -3 -44 2 -67 14 -21 11 -38 17
-38 12 0 -4 16 -15 35 -26 42 -23 49 -38 27 -61 -9 -11 -13 -14 -9 -7 4 7 3
15 -3 19 -5 3 -10 3 -10 -1 0 -3 -12 1 -26 11 -22 14 -28 15 -36 4 -7 -10 -8
-9 -4 5 5 15 -8 33 -56 78 -67 61 -73 65 -84 46z m1209 -238 c3 -11 2 -20 -3
-20 -4 0 -10 11 -12 25 -6 29 7 25 15 -5z m-63 -36 c0 -9 -7 -14 -17 -12 -25
5 -28 28 -4 28 12 0 21 -6 21 -16z m-698 -15 c33 -24 35 -61 4 -67 -13 -3 -17
0 -13 11 4 11 -5 16 -36 21 -53 8 -72 20 -64 40 9 23 73 21 109 -5z m740 -19
c41 0 30 -11 -11 -12 -18 -1 -37 5 -44 12 -10 10 -8 12 6 6 10 -3 33 -6 49 -6z
m432 -6 c3 -8 2 -12 -4 -9 -6 3 -10 10 -10 16 0 14 7 11 14 -7z m-336 -21
c-10 -2 -28 -2 -40 0 -13 2 -5 4 17 4 22 1 32 -1 23 -4z m-418 -68 c0 -1 -6
-7 -13 -13 -10 -8 -13 -6 -13 7 0 11 6 17 13 14 7 -3 13 -6 13 -8z m460 -5
c11 0 25 -10 31 -22 10 -20 10 -21 -2 -11 -8 6 -30 18 -49 27 -19 9 -27 14
-17 11 10 -3 27 -5 37 -5z m-169 -68 c-7 -2 -18 1 -23 6 -8 8 -4 9 13 5 13 -4
18 -8 10 -11z m397 -19 c23 -34 44 -73 39 -73 -3 0 -16 18 -31 40 -14 22 -30
40 -34 40 -4 0 -20 -23 -36 -50 -16 -27 -34 -47 -38 -43 -5 3 -7 11 -4 19 7
17 -6 18 -22 2 -9 -9 -12 -9 -12 0 0 7 -8 12 -17 12 -13 1 -8 10 21 35 33 30
50 37 103 44 6 0 20 -11 31 -26z m86 -150 c-31 -28 -84 -43 -156 -43 -51 0
-56 2 -51 20 5 20 33 31 116 46 25 4 37 12 37 23 0 13 2 14 9 2 8 -13 13 -12
33 1 22 15 23 14 29 -6 5 -15 0 -28 -17 -43z m-325 26 c-17 -11 -70 -11 -85
-1 -7 4 13 8 43 8 35 1 50 -2 42 -7z m-379 -39 c0 -5 -7 -10 -16 -10 -8 0 -12
5 -9 10 3 6 10 10 16 10 5 0 9 -4 9 -10z m729 -44 c-7 -14 -16 -26 -21 -26
-15 0 -8 39 9 49 24 13 26 8 12 -23z m-179 -36 c0 -5 -5 -9 -12 -7 -7 1 -17
-14 -24 -33 -13 -38 -25 -26 -21 22 2 23 7 28 30 28 15 0 27 -4 27 -10z m-700
-34 c0 -2 -8 -10 -17 -17 -16 -13 -17 -12 -4 4 13 16 21 21 21 13z m-70 -61
c-10 -12 -9 -15 6 -15 21 0 81 20 102 33 27 18 -18 -68 -51 -96 -46 -40 -64
-49 -73 -35 -4 6 -3 8 2 5 6 -3 28 10 49 29 38 34 39 35 13 31 -19 -3 -25 0
-21 10 3 9 -3 13 -19 13 -34 0 -41 10 -21 32 19 21 32 15 13 -7z m399 -100
c-3 -2 -19 -5 -37 -7 -18 -1 -32 -7 -32 -12 0 -5 -3 -7 -6 -3 -13 13 9 27 43
27 20 0 34 -2 32 -5z m264 -72 c-7 -2 -21 -2 -30 0 -10 3 -4 5 12 5 17 0 24
-2 18 -5z m27 -28 c-14 -8 -32 -14 -40 -14 -8 0 -1 7 15 14 39 18 57 18 25 0z
m46 -126 c-14 -11 -26 -28 -26 -37 -1 -15 -2 -15 -11 1 -5 9 -22 17 -36 17
-36 0 -22 11 34 26 66 18 69 17 39 -7z m74 2 c0 -5 -10 -11 -22 -14 -22 -6
-22 -6 -4 8 23 17 26 18 26 6z m-965 -132 c-33 -10 -78 -18 -100 -18 -32 1
-25 4 33 14 41 7 76 16 80 19 3 3 15 6 26 5 12 0 -6 -9 -39 -20z m181 6 c-7
-18 -8 -18 44 0 59 21 62 12 3 -10 -74 -28 -255 -117 -398 -195 l-130 -72
-105 6 c-102 5 -256 36 -289 57 -14 9 -14 10 2 5 10 -3 64 -15 120 -27 129
-26 209 -23 257 11 33 23 86 37 75 19 -4 -5 -3 -9 1 -9 18 0 240 115 324 169
52 33 97 61 99 61 2 0 1 -7 -3 -15z m-281 -45 c-3 -5 -12 -10 -18 -10 -7 0 -6
4 3 10 19 12 23 12 15 0z m-25 -34 c0 -5 -88 -66 -96 -66 -7 0 30 34 56 53 24
16 40 22 40 13z m410 -136 c22 -19 29 -30 18 -30 -18 0 -68 37 -68 51 0 15 13
10 50 -21z m-853 -6 c-3 -3 -12 -4 -19 -1 -8 3 -5 6 6 6 11 1 17 -2 13 -5z
m378 -194 c0 -21 -5 -35 -12 -35 -7 0 -18 -6 -24 -12 -7 -7 -26 -13 -41 -13
-24 0 -28 -4 -28 -27 0 -37 -8 -25 -16 23 -10 68 -9 71 31 78 19 4 35 12 35
17 0 6 12 9 28 7 24 -3 27 -7 27 -38z m311 -176 c61 -124 88 -189 90 -219 2
-42 1 -44 -37 -63 l-39 -20 -36 64 c-20 35 -37 64 -39 64 -2 0 -13 -29 -25
-64 l-21 -65 -41 15 c-61 21 -72 19 -52 -11 9 -14 13 -32 10 -41 -3 -8 -1 -24
4 -35 9 -16 5 -22 -34 -41 -25 -12 -48 -20 -50 -17 -13 13 -206 413 -206 426
0 8 72 -8 100 -21 14 -7 37 -16 53 -20 26 -6 27 -5 27 33 0 35 3 39 31 45 16
3 37 12 44 20 18 17 53 10 57 -13 2 -9 14 16 27 54 27 81 29 85 41 85 5 0 48
-79 96 -176z m-492 131 c-4 -8 -8 -15 -10 -15 -2 0 -4 7 -4 15 0 8 4 15 10 15
5 0 7 -7 4 -15z m-117 -102 c-3 -10 -5 -2 -5 17 0 19 2 27 5 18 2 -10 2 -26 0
-35z m-99 -120 c2 -13 -7 -28 -22 -40 -20 -16 -26 -31 -29 -74 -2 -41 -4 -33
-5 31 -1 47 -5 95 -8 108 -6 23 -6 23 27 9 21 -8 35 -21 37 -34z m57 -23 c-10
-11 -20 -18 -23 -15 -3 3 3 14 13 25 10 11 20 18 23 15 3 -3 -3 -14 -13 -25z
m73 -116 c2 -12 -9 -36 -25 -55 -21 -24 -30 -47 -34 -88 -4 -46 -6 -36 -10 57
l-4 113 35 -3 c27 -2 36 -8 38 -24z m47 -64 c-16 -16 -31 -28 -33 -25 -7 7 39
55 52 55 5 0 -3 -13 -19 -30z m-229 -39 c-4 -5 0 -12 6 -14 8 -3 6 -6 -4 -6
-10 -1 -18 6 -18 14 0 8 5 15 11 15 5 0 8 -4 5 -9z m164 -156 c0 -8 -2 -15 -4
-15 -2 0 -6 7 -10 15 -3 8 -1 15 4 15 6 0 10 -7 10 -15z m-189 -27 c11 -21 11
-22 -4 -9 -10 7 -17 17 -17 22 0 15 9 10 21 -13z m189 -8 c0 -5 -5 -10 -11
-10 -5 0 -7 5 -4 10 3 6 8 10 11 10 2 0 4 -4 4 -10z m-20 -53 c0 -7 -5 -18
-11 -24 -7 -7 -3 -12 15 -17 15 -4 26 -13 26 -23 0 -18 -28 -53 -43 -53 -5 0
1 8 14 18 14 12 20 25 16 35 -8 22 -46 22 -63 0 -12 -16 -13 -13 -14 23 0 22
3 44 7 47 12 12 53 7 53 -6z m70 -101 c0 -8 10 -17 23 -19 19 -4 19 -4 -5 -6
-14 0 -28 -7 -30 -13 -3 -9 -9 -8 -22 5 -17 16 -16 17 6 18 13 0 17 3 10 6 -6
2 -10 9 -6 14 8 14 24 11 24 -5z"/>
<path d="M776 1031 c-9 -14 -76 -212 -76 -223 0 -4 6 -8 14 -8 19 0 89 207 77
228 -6 10 -10 11 -15 3z"/>
<path d="M430 864 c0 -3 4 -13 10 -23 10 -20 19 -24 162 -75 l97 -35 9 28 c10
28 10 28 -33 26 -26 0 -41 3 -38 9 4 5 -3 7 -15 4 -14 -4 -20 -2 -15 5 4 6 -2
8 -15 5 -12 -4 -20 -2 -16 3 5 8 -12 13 -43 12 -7 -1 -13 3 -13 7 0 5 -20 15
-45 23 -25 9 -45 14 -45 11z"/>
<path d="M651 849 c-18 -17 -20 -23 -9 -30 22 -14 34 -10 46 16 15 33 15 35
-1 35 -7 0 -24 -10 -36 -21z"/>
<path d="M215 309 c-4 -6 -5 -12 -2 -15 7 -7 37 7 37 17 0 13 -27 11 -35 -2z"/>
<path d="M280 2764 c0 -8 5 -12 10 -9 6 4 8 11 5 16 -9 14 -15 11 -15 -7z"/>
<path d="M1011 2761 c-11 -7 -11 -10 0 -15 8 -3 4 -4 -8 -2 -13 2 -23 0 -23
-5 0 -5 -3 -8 -7 -7 -17 5 -83 -24 -77 -33 3 -6 0 -10 -7 -8 -38 5 -42 -1 -19
-26 20 -22 25 -23 32 -10 13 21 77 19 112 -4 32 -22 59 -15 84 21 7 10 21 18
31 18 26 0 44 23 29 38 -7 7 -20 12 -31 12 -10 0 -16 4 -13 9 3 5 -11 11 -32
15 -48 8 -54 7 -71 -3z"/>
<path d="M1776 2700 c22 -43 39 -53 40 -24 1 13 -2 21 -7 18 -5 -3 -9 -1 -9 3
0 5 -9 14 -19 20 -18 11 -18 10 -5 -17z"/>
<path d="M2723 2688 c-19 -22 -53 -127 -57 -178 -1 -14 -13 -65 -25 -115 -18
-68 -31 -97 -52 -117 -33 -31 -36 -40 -13 -31 12 4 15 0 14 -18 -7 -80 7 -61
34 48 18 68 27 88 39 87 10 -1 17 -1 17 1 0 2 18 74 40 160 22 86 40 163 40
171 0 20 -14 17 -37 -8z"/>
<path d="M1898 2693 c7 -3 16 -2 19 1 4 3 -2 6 -13 5 -11 0 -14 -3 -6 -6z"/>
<path d="M1106 2629 c-20 -10 -39 -19 -43 -18 -18 1 -12 -33 16 -95 38 -82 59
-87 53 -13 -1 11 2 15 9 11 8 -4 9 1 4 16 -5 17 -4 21 6 15 9 -6 11 -3 5 10
-8 21 2 58 14 50 4 -3 6 4 3 14 -7 29 -27 32 -67 10z"/>
<path d="M1594 2610 l29 -35 -36 -3 c-65 -6 -42 -34 30 -39 51 -3 55 3 11 16
-31 9 -29 10 18 8 29 -1 50 -5 48 -8 -5 -9 27 -36 59 -48 l27 -11 -20 40 c-19
36 -30 45 -53 41 -5 -1 -6 3 -2 9 8 14 -8 13 -22 -1 -9 -9 -21 -4 -50 18 -60
46 -70 50 -39 13z m156 -81 c11 -19 10 -20 -9 -10 -27 15 -36 31 -17 31 8 0
20 -9 26 -21z"/>
<path d="M930 2606 c0 -9 -5 -16 -11 -16 -7 0 -4 -11 6 -27 21 -34 94 -103
108 -103 6 0 19 -7 29 -17 10 -9 21 -14 24 -11 8 8 -64 148 -76 148 -6 0 -10
7 -10 15 0 8 -9 15 -19 15 -11 0 -26 3 -35 6 -11 4 -16 1 -16 -10z m37 -12
c-3 -3 -12 -4 -19 -1 -8 3 -5 6 6 6 11 1 17 -2 13 -5z m78 -122 c-3 -3 -11 0
-18 7 -9 10 -8 11 6 5 10 -3 15 -9 12 -12z"/>
<path d="M1216 2607 c5 -13 54 -42 54 -32 0 2 -13 13 -30 25 -20 14 -28 16
-24 7z"/>
<path d="M1830 2591 c0 -5 5 -13 10 -16 6 -3 10 -2 10 4 0 5 -4 13 -10 16 -5
3 -10 2 -10 -4z"/>
<path d="M1856 2575 c-9 -23 -8 -25 9 -25 17 0 19 9 6 28 -7 11 -10 10 -15 -3z"/>
<path d="M2100 2551 c0 -24 0 -24 -22 -5 -23 20 -19 10 13 -36 17 -26 19 -30
19 -55 0 -8 14 -22 30 -30 18 -9 28 -21 24 -27 -4 -7 -3 -8 4 -4 7 4 9 19 5
38 -4 21 -3 29 5 24 7 -4 10 6 8 31 -2 34 -5 38 -30 38 -19 0 -32 8 -41 25
l-14 25 -1 -24z"/>
<path d="M2202 2545 c0 -16 2 -22 5 -12 2 9 2 23 0 30 -3 6 -5 -1 -5 -18z"/>
<path d="M2020 2535 c0 -32 23 -65 46 -65 27 0 24 21 -9 58 -24 25 -37 28 -37
7z"/>
<path d="M1889 2503 c6 -13 17 -23 22 -23 6 0 8 -7 5 -16 -3 -8 -2 -13 3 -10
5 3 12 -1 15 -10 9 -24 7 -31 -4 -14 -11 17 -12 4 -1 -23 6 -17 11 -14 42 20
19 21 38 39 42 41 4 1 7 4 7 7 0 3 0 10 0 16 0 6 -9 9 -20 6 -11 -3 -23 -1
-26 4 -3 5 -10 7 -15 3 -5 -3 -6 -11 -2 -17 4 -7 -2 -5 -12 3 -11 9 -16 10
-11 3 12 -20 -6 -15 -32 10 l-25 22 12 -22z"/>
<path d="M835 2480 c3 -5 8 -10 11 -10 2 0 4 5 4 10 0 6 -5 10 -11 10 -5 0 -7
-4 -4 -10z"/>
<path d="M1220 2435 l-45 -23 28 -13 c16 -7 34 -24 41 -37 12 -24 13 -23 30
23 16 40 16 49 5 60 -12 11 -21 10 -59 -10z"/>
<path d="M2050 2394 c-13 -26 -41 -65 -62 -86 -21 -21 -34 -38 -29 -38 6 0 13
5 17 11 10 17 86 49 116 49 25 0 27 3 26 35 -1 19 -4 33 -6 30 -3 -3 -13 6
-22 21 l-17 26 -23 -48z m35 16 c3 -5 1 -10 -4 -10 -6 0 -11 5 -11 10 0 6 2
10 4 10 3 0 8 -4 11 -10z"/>
<path d="M1971 2360 c-12 -11 -27 -17 -32 -14 -5 3 -9 -7 -9 -23 0 -15 -4 -43
-9 -61 -6 -18 -6 -45 -1 -62 5 -19 5 -28 -1 -25 -5 4 -9 -17 -9 -47 0 -32 -6
-62 -15 -76 -9 -12 -24 -46 -33 -75 l-18 -53 35 -1 c20 -1 28 1 19 4 -46 12 5
33 83 33 21 0 49 -4 63 -10 32 -12 35 4 4 21 -21 11 -21 13 -4 19 16 5 15 8
-10 24 -57 36 -81 66 -76 91 4 24 8 25 64 23 57 -2 61 -1 88 32 27 33 29 34
54 20 24 -12 28 -12 44 5 16 17 16 18 0 12 -10 -4 -18 -3 -19 1 0 4 -2 16 -4
26 -4 19 31 54 48 48 4 -1 7 4 7 11 0 17 -25 15 -75 -8 -106 -48 -133 -51
-181 -26 -20 11 -41 18 -45 15 -5 -3 4 13 18 36 15 22 29 40 33 40 3 0 6 9 6
20 0 11 0 20 -1 20 0 -1 -11 -9 -24 -20z m48 -146 c17 -4 31 -11 31 -16 0 -6
-7 -8 -14 -5 -16 6 -32 -26 -21 -43 8 -13 -35 -13 -55 0 -13 8 -12 10 3 10 20
0 24 45 5 53 -19 8 14 8 51 1z"/>
<path d="M2533 2145 c-12 -49 -19 -93 -15 -99 3 -6 5 -19 4 -28 -5 -28 5 -21
17 12 5 17 6 28 1 25 -5 -3 -11 -1 -15 5 -3 5 -1 10 4 10 6 0 11 10 11 22 0
12 3 18 7 15 12 -12 33 15 33 42 -1 14 -6 39 -13 55 -12 27 -13 25 -34 -59z
m24 -17 c-3 -7 -5 -2 -5 12 0 14 2 19 5 13 2 -7 2 -19 0 -25z"/>
<path d="M2135 2090 c4 -6 11 -8 16 -5 14 9 11 15 -7 15 -8 0 -12 -5 -9 -10z"/>
<path d="M2115 2050 c-19 -8 -19 -9 3 -9 12 -1 22 4 22 9 0 6 -1 10 -2 9 -2 0
-12 -4 -23 -9z"/>
<path d="M2481 1998 c-14 -23 -14 -23 8 -4 22 20 25 26 13 26 -4 0 -13 -10
-21 -22z"/>
<path d="M2535 1999 c-4 -5 -10 -7 -14 -4 -5 2 -16 -4 -26 -15 -10 -11 -15
-20 -11 -20 3 0 -8 -13 -26 -29 -30 -27 -33 -27 -58 -13 -15 9 -34 13 -43 9
-16 -6 -16 -9 0 -42 l17 -36 -32 -30 c-18 -17 -32 -35 -32 -41 0 -23 45 -76
75 -90 34 -15 44 -48 20 -68 -8 -7 -15 -23 -15 -35 0 -12 -15 -42 -34 -65 -19
-24 -32 -49 -29 -57 5 -11 7 -11 17 1 6 7 36 16 66 19 30 2 48 3 38 0 -20 -5
-60 -96 -52 -117 3 -9 1 -23 -5 -30 -9 -11 -9 -15 1 -19 7 -3 4 -6 -8 -6 -31
-1 -108 -41 -98 -51 5 -5 29 -10 54 -12 l45 -3 43 84 c24 46 41 90 38 98 -3 8
-1 11 4 8 6 -3 10 -2 10 4 0 5 -6 12 -12 14 -8 3 -6 6 5 6 40 2 6 41 -37 41
-37 0 -27 13 11 14 22 1 34 -8 54 -37 l26 -37 -1 70 c-1 41 4 74 10 78 17 11
22 35 12 55 -5 9 -5 17 -1 17 5 0 14 10 22 23 13 19 12 21 -1 10 -12 -11 -19
-8 -39 14 -13 14 -18 23 -11 19 16 -10 15 4 -3 28 -19 25 -19 42 -1 27 9 -7
17 -8 20 -2 3 5 0 11 -6 13 -8 3 -3 10 12 19 24 14 34 48 17 60 -12 9 51 59
73 59 34 0 32 -20 -4 -60 -20 -22 -36 -44 -36 -49 0 -14 14 -21 27 -13 15 10
66 122 59 130 -4 3 -19 8 -34 10 -15 2 -29 7 -30 13 -2 5 -9 6 -14 3 -6 -4 -8
-2 -5 3 4 6 1 15 -6 20 -21 17 -46 23 -52 12z m25 -61 c0 -6 -7 -7 -16 -4 -9
3 -18 6 -20 6 -3 0 -3 4 1 10 7 11 35 2 35 -12z m-89 -75 c-8 -15 -10 -15 -11
-2 0 17 10 32 18 25 2 -3 -1 -13 -7 -23z m-61 -3 c0 -11 -4 -20 -9 -20 -5 0
-7 9 -4 20 3 11 7 20 9 20 2 0 4 -9 4 -20z m224 -14 c-6 -16 -24 -23 -24 -8 0
10 22 33 27 28 2 -2 1 -11 -3 -20z m-270 -57 c-8 -14 -24 -10 -24 6 0 9 6 12
15 9 8 -4 12 -10 9 -15z m6 -29 c-13 -8 -12 -10 3 -10 10 0 15 -5 12 -10 -5
-8 -11 -7 -21 1 -11 9 -12 15 -3 26 7 7 14 11 18 8 3 -3 -1 -10 -9 -15z m94
-140 c-6 -6 -10 -3 -10 10 0 13 4 16 10 10 7 -7 7 -13 0 -20z m46 16 c0 -20
-21 -80 -33 -91 -6 -7 -7 0 -2 20 5 17 9 41 11 55 3 32 2 30 14 30 6 0 10 -6
10 -14z m-79 -23 c-12 -20 -14 -14 -5 12 4 9 9 14 11 11 3 -2 0 -13 -6 -23z"/>
<path d="M1093 1969 c-18 -12 -33 -25 -33 -31 0 -10 56 20 72 40 16 18 -3 14
-39 -9z"/>
<path d="M2426 1934 c-9 -23 -2 -28 13 -10 7 8 8 17 3 20 -6 3 -13 -1 -16 -10z"/>
<path d="M1968 1933 c6 -2 18 -2 25 0 6 3 1 5 -13 5 -14 0 -19 -2 -12 -5z"/>
<path d="M1750 1924 c0 -17 28 -31 43 -22 26 14 20 28 -13 28 -16 0 -30 -3
-30 -6z"/>
<path d="M1978 1918 c-25 -6 -38 -16 -38 -26 0 -11 -3 -13 -8 -6 -6 11 -44 18
-84 15 -17 -1 -48 -58 -48 -88 0 -20 -25 -43 -47 -43 -15 0 -14 -2 5 -16 12
-8 22 -21 22 -28 0 -8 22 -24 48 -37 l48 -24 46 24 c36 19 45 29 44 50 -1 22
-6 27 -33 29 -55 5 -48 29 10 35 62 6 97 14 106 23 3 4 -7 4 -22 2 -15 -3 -25
-3 -22 1 4 3 37 6 73 7 56 0 63 -1 40 -10 -16 -5 -28 -13 -28 -17 0 -18 36
-17 78 2 l47 22 -30 7 c-16 4 -25 8 -20 9 6 1 3 5 -5 11 -9 6 -17 5 -23 -3 -6
-8 -7 -7 -4 3 2 8 -2 27 -10 43 -12 24 -19 27 -61 26 -26 -1 -64 -6 -84 -11z
m52 -57 c0 -5 -12 -12 -27 -15 -16 -4 -36 -9 -45 -12 -10 -3 -18 -1 -18 5 0 6
15 15 33 20 43 12 57 13 57 2z"/>
<path d="M1752 1882 c-45 -3 -49 -22 -4 -23 24 0 25 -1 7 -9 -20 -9 -20 -9 0
-9 11 -1 26 8 33 20 16 25 17 25 -36 21z"/>
<path d="M2023 1795 c-18 -8 -33 -21 -33 -29 0 -8 -3 -22 -6 -31 -6 -14 -3
-14 19 -4 15 7 24 17 20 22 -3 6 7 21 23 34 33 26 24 29 -23 8z"/>
<path d="M2090 1779 c0 -5 5 -7 10 -4 6 3 10 8 10 11 0 2 -4 4 -10 4 -5 0 -10
-5 -10 -11z"/>
<path d="M2603 1775 c-3 -9 -3 -18 -1 -21 3 -3 8 4 11 16 6 23 -1 27 -10 5z"/>
<path d="M2600 1706 c0 -2 7 -6 15 -10 8 -3 15 -1 15 4 0 6 -7 10 -15 10 -8 0
-15 -2 -15 -4z"/>
<path d="M96 1685 c-16 -12 -17 -18 -8 -27 7 -7 12 -9 12 -5 0 6 26 -12 55
-40 8 -7 18 -13 24 -13 6 0 11 -9 11 -20 0 -15 18 -25 94 -49 87 -28 144 -35
234 -31 17 1 32 5 32 10 0 5 15 7 33 4 17 -3 28 -2 22 3 -5 4 -10 13 -10 18 0
17 -38 59 -65 72 -49 23 -309 88 -318 79 -2 -3 -13 -1 -23 4 -10 6 -20 6 -23
1 -3 -5 -17 -8 -31 -8 -13 0 -22 3 -19 8 7 12 2 11 -20 -6z"/>
<path d="M2560 1655 c0 -18 54 -108 58 -96 2 7 0 16 -5 20 -5 3 -15 21 -22 39
-12 29 -31 52 -31 37z"/>
<path d="M550 1640 c20 -13 40 -13 40 0 0 6 -12 10 -27 10 -22 0 -25 -2 -13
-10z"/>
<path d="M0 1611 c0 -14 11 -24 35 -32 19 -7 35 -17 35 -21 0 -11 -13 -10 -45
2 -22 9 -26 7 -23 -6 4 -21 119 -50 228 -58 l75 -6 -55 26 c-30 14 -84 37
-120 51 -36 14 -80 34 -97 45 -33 20 -33 20 -33 -1z"/>
<path d="M618 1618 c12 -6 22 -15 22 -20 0 -5 10 -8 23 -6 17 2 22 -2 20 -17
-1 -17 0 -18 10 -4 7 8 20 18 30 22 9 3 17 11 17 16 0 13 -25 19 -90 20 -47 0
-52 -1 -32 -11z"/>
<path d="M2580 1553 c0 -27 -30 -105 -43 -115 -6 -3 -16 -4 -24 -1 -8 3 -19
-9 -29 -33 -9 -22 -25 -59 -37 -84 -11 -25 -21 -51 -20 -57 0 -7 -3 -11 -7 -8
-4 2 -13 -6 -20 -20 -7 -13 -18 -21 -26 -18 -8 3 -14 -1 -14 -10 0 -8 7 -18
16 -21 9 -4 14 -9 10 -13 -3 -3 -14 0 -23 9 -24 20 -106 49 -140 50 -15 0 -70
-21 -122 -47 -75 -37 -96 -44 -103 -33 -5 7 -46 88 -91 180 -61 125 -85 165
-95 159 -11 -6 3 -41 59 -152 46 -93 73 -159 76 -186 3 -41 2 -43 -38 -64 -34
-17 -43 -18 -50 -7 -5 7 -46 88 -91 180 -80 163 -97 184 -98 116 0 -16 6 -28
13 -28 16 0 60 -98 54 -120 -2 -10 -1 -23 3 -30 4 -7 -3 -44 -15 -81 l-24 -69
37 -9 c20 -6 73 -20 117 -31 44 -12 95 -25 113 -30 18 -4 47 -19 65 -32 39
-30 125 -60 141 -50 6 4 43 7 81 8 39 0 93 8 121 18 48 16 55 22 101 99 83
135 94 162 103 256 5 48 21 126 35 174 14 48 25 93 25 99 0 27 -34 -38 -55
-105 -14 -43 -23 -62 -24 -47 0 14 8 53 18 86 11 38 15 67 10 75 -6 10 -9 8
-9 -8z"/>
<path d="M1844 1545 c-19 -14 -19 -14 2 -15 12 0 27 7 34 15 17 20 -9 21 -36
0z"/>
<path d="M2040 1502 c-68 -33 -65 -31 -58 -38 4 -3 20 2 36 10 40 20 87 5 108
-35 16 -32 31 -36 58 -16 17 12 17 15 0 50 -11 23 -28 40 -47 47 -38 13 -32
14 -97 -18z"/>
<path d="M1706 1503 c-11 -11 -6 -23 9 -23 8 0 15 4 15 9 0 13 -16 22 -24 14z"/>
<path d="M1575 1447 c-11 -7 -86 -44 -167 -82 -82 -37 -148 -72 -148 -77 0 -5
5 -18 10 -28 10 -18 17 -16 122 36 62 30 115 59 119 65 3 5 10 9 15 8 11 -3
104 40 104 47 0 11 -21 44 -28 44 -4 0 -16 -6 -27 -13z"/>
<path d="M2010 1405 c0 -18 33 -53 46 -48 11 4 12 8 3 20 -14 16 -49 37 -49
28z"/>
<path d="M2183 1398 c-25 -12 -28 -24 -14 -47 8 -12 14 -12 40 -1 35 14 36 18
17 43 -15 19 -14 19 -43 5z"/>
<path d="M2115 1358 c-96 -33 -94 -32 -72 -62 12 -17 15 -17 48 -1 21 10 40
29 46 46 6 16 11 29 10 28 -1 -1 -15 -6 -32 -11z"/>
<path d="M1670 1289 c-7 -11 -10 -23 -7 -25 8 -8 37 8 37 21 0 24 -19 26 -30
4z"/>
<path d="M1013 1175 c-95 -46 -173 -88 -173 -93 0 -4 6 -16 13 -26 12 -16 26
-11 189 70 171 84 176 88 166 110 -6 13 -14 24 -17 24 -3 0 -84 -38 -178 -85z"/>
<path d="M1512 1238 c-17 -17 -15 -39 3 -31 9 3 13 8 11 11 -3 3 -1 11 5 19
14 16 -3 17 -19 1z"/>
<path d="M1449 1212 c-24 -16 -29 -42 -8 -42 10 0 44 49 37 55 -2 2 -15 -4
-29 -13z"/>
<path d="M2318 1223 c7 -3 16 -2 19 1 4 3 -2 6 -13 5 -11 0 -14 -3 -6 -6z"/>
<path d="M1596 1095 c-9 -26 -7 -32 5 -12 6 10 9 21 6 23 -2 3 -7 -2 -11 -11z"/>
<path d="M1090 1037 c-98 -48 -94 -40 -60 -107 l30 -59 32 15 c18 8 45 20 61
27 34 14 34 21 -3 47 -38 27 -38 44 1 60 19 8 28 18 25 27 -4 8 -6 17 -6 19 0
8 -15 2 -80 -29z"/>
<path d="M1124 882 c-66 -34 -71 -39 -63 -60 5 -13 13 -22 17 -20 4 1 45 21
91 43 83 39 83 39 61 57 -12 10 -25 18 -29 18 -3 -1 -38 -18 -77 -38z"/>
<path d="M1380 869 c7 -11 14 -19 16 -16 7 7 -7 37 -17 37 -6 0 -5 -9 1 -21z"/>
</g>
</svg>
